<svg width="680" height="548" viewBox="0 0 680 548" fill="none" xmlns="http://www.w3.org/2000/svg">
<g clip-path="url(#clip0_616_473)">
<path d="M727 370H509.5L401.5 447.5H213.5L163.5 368H-5.5" stroke="url(#paint0_linear_616_473)" stroke-width="2"/>
<rect x="554" y="389" width="38" height="38" rx="7" transform="rotate(180 554 389)" fill="#18311F"/>
<rect x="554" y="389" width="38" height="38" rx="7" transform="rotate(180 554 389)" stroke="url(#paint1_linear_616_473)" stroke-width="2"/>
<g clip-path="url(#clip1_616_473)">
<path d="M544.12 363.515C544.092 363.475 544.058 363.442 544.029 363.402C543.555 362.756 543.014 362.162 542.415 361.63C542.367 361.586 542.32 361.542 542.272 361.499C541.621 360.942 540.909 360.46 540.148 360.065C540.118 360.049 540.086 360.035 540.055 360.02C539.716 359.848 539.368 359.693 539.013 359.557C538.937 359.527 538.861 359.501 538.784 359.473C538.468 359.359 538.147 359.259 537.821 359.174C537.724 359.149 537.629 359.122 537.532 359.1C537.212 359.027 536.889 358.968 536.564 358.922C536.465 358.908 536.368 358.889 536.268 358.877C535.851 358.83 535.429 358.8 535 358.8C534.57 358.8 534.148 358.83 533.731 358.877C533.631 358.888 533.533 358.908 533.434 358.922C533.109 358.967 532.786 359.026 532.467 359.1C532.369 359.123 532.274 359.15 532.177 359.174C531.85 359.26 531.529 359.359 531.214 359.473C531.137 359.501 531.061 359.527 530.985 359.557C530.629 359.694 530.281 359.848 529.944 360.02C529.912 360.036 529.881 360.049 529.85 360.065C529.09 360.46 528.378 360.941 527.728 361.498C527.679 361.541 527.633 361.586 527.584 361.629C527.249 361.927 526.932 362.244 526.634 362.579C526.4 362.843 526.179 363.117 525.97 363.402C525.941 363.441 525.907 363.475 525.879 363.515C525.874 363.522 525.873 363.53 525.869 363.537C524.523 365.423 523.799 367.683 523.799 370C523.799 372.318 524.523 374.577 525.869 376.463C525.874 376.47 525.874 376.478 525.879 376.485C525.907 376.525 525.941 376.558 525.97 376.598C526.444 377.244 526.985 377.838 527.584 378.37C527.632 378.414 527.679 378.458 527.728 378.501C528.376 379.056 529.087 379.538 529.851 379.935C529.881 379.951 529.913 379.965 529.944 379.98C530.282 380.152 530.63 380.306 530.986 380.443C531.062 380.473 531.138 380.499 531.215 380.527C531.53 380.641 531.851 380.74 532.178 380.826C532.275 380.851 532.37 380.878 532.468 380.9C532.785 380.974 533.108 381.031 533.435 381.078C533.534 381.092 533.632 381.111 533.732 381.123C534.148 381.17 534.57 381.2 535 381.2C535.429 381.2 535.851 381.17 536.268 381.123C536.368 381.112 536.466 381.092 536.565 381.078C536.89 381.033 537.213 380.974 537.532 380.9C537.63 380.877 537.725 380.85 537.822 380.826C538.149 380.74 538.47 380.641 538.785 380.527C538.862 380.499 538.938 380.473 539.014 380.443C539.37 380.306 539.718 380.152 540.056 379.98C540.087 379.964 540.118 379.951 540.149 379.935C540.909 379.54 541.622 379.058 542.272 378.501C542.321 378.459 542.368 378.414 542.416 378.37C543.015 377.838 543.556 377.244 544.03 376.598C544.059 376.558 544.093 376.524 544.121 376.485C544.126 376.478 544.126 376.47 544.131 376.463C545.477 374.577 546.2 372.317 546.2 370C546.2 367.683 545.476 365.423 544.13 363.537C544.126 363.53 544.125 363.522 544.12 363.515ZM543.209 374.95C542.115 374.366 540.789 373.92 539.319 373.622C539.548 372.73 539.708 371.786 539.767 370.799H544.559C544.437 372.269 543.975 373.689 543.209 374.95ZM542.192 376.338C542.004 376.551 541.808 376.756 541.603 376.95C541.552 376.998 541.5 377.044 541.448 377.09C541.2 377.317 540.939 377.53 540.668 377.73C540.451 377.89 540.226 378.04 539.996 378.181C539.944 378.214 539.891 378.246 539.837 378.278C539.595 378.42 539.345 378.55 539.092 378.67C539.045 378.693 539 378.716 538.952 378.738C538.688 378.858 538.416 378.965 538.141 379.061C538.099 379.075 538.058 379.093 538.016 379.107C537.737 379.2 537.453 379.277 537.167 379.344C537.122 379.354 537.079 379.369 537.034 379.378C536.924 379.402 536.81 379.414 536.699 379.434C537.583 378.099 538.306 376.664 538.853 375.16C540.143 375.41 541.312 375.78 542.265 376.256C542.241 376.284 542.216 376.31 542.192 376.338ZM532.832 379.344C532.545 379.277 532.261 379.2 531.983 379.107C531.94 379.093 531.9 379.076 531.857 379.061C531.582 378.965 531.311 378.858 531.046 378.738C531 378.717 530.954 378.693 530.908 378.671C530.654 378.551 530.404 378.42 530.162 378.278C530.108 378.247 530.056 378.214 530.003 378.182C529.773 378.041 529.548 377.89 529.331 377.73C529.275 377.689 529.219 377.648 529.164 377.606C528.952 377.443 528.748 377.271 528.551 377.091C528.5 377.045 528.447 376.999 528.396 376.951C528.191 376.756 527.995 376.551 527.808 376.338C527.784 376.311 527.758 376.285 527.734 376.257C528.688 375.781 529.856 375.41 531.146 375.161C531.693 376.665 532.416 378.1 533.3 379.434C533.189 379.414 533.076 379.403 532.965 379.379C532.92 379.369 532.876 379.354 532.832 379.344ZM525.44 370.8H530.232C530.291 371.786 530.452 372.73 530.68 373.623C529.209 373.921 527.884 374.367 526.79 374.95C526.025 373.69 525.563 372.269 525.44 370.8ZM526.79 365.05C527.884 365.634 529.21 366.08 530.68 366.378C530.441 367.302 530.291 368.247 530.232 369.2H525.44C525.563 367.731 526.025 366.31 526.79 365.05ZM527.808 363.662C527.996 363.449 528.192 363.244 528.396 363.05C528.447 363.002 528.499 362.956 528.551 362.91C528.799 362.683 529.06 362.47 529.331 362.27C529.825 361.907 530.353 361.592 530.908 361.329C530.954 361.307 531 361.283 531.046 361.262C531.311 361.141 531.582 361.034 531.857 360.938C531.9 360.924 531.94 360.906 531.983 360.892C532.261 360.8 532.545 360.723 532.832 360.656C532.876 360.646 532.92 360.631 532.964 360.622C533.075 360.598 533.188 360.586 533.3 360.566C532.416 361.901 531.693 363.336 531.145 364.84C529.856 364.591 528.687 364.22 527.734 363.744C527.758 363.716 527.784 363.69 527.808 363.662ZM537.168 360.656C537.454 360.723 537.738 360.8 538.016 360.893C538.059 360.907 538.1 360.924 538.142 360.939C538.417 361.035 538.688 361.142 538.953 361.262C539 361.283 539.045 361.307 539.092 361.329C539.402 361.476 539.704 361.639 539.996 361.818C540.227 361.959 540.451 362.11 540.668 362.27C540.724 362.311 540.78 362.352 540.836 362.394C541.047 362.557 541.251 362.729 541.448 362.909C541.5 362.955 541.552 363.001 541.603 363.049C541.808 363.243 542.004 363.449 542.192 363.662C542.216 363.689 542.241 363.715 542.265 363.743C541.312 364.219 540.143 364.59 538.853 364.839C538.306 363.335 537.583 361.9 536.699 360.566C536.81 360.586 536.924 360.597 537.034 360.621C537.08 360.631 537.123 360.646 537.168 360.656ZM535 373.2C534.061 373.2 533.147 373.258 532.266 373.364C532.037 372.526 531.89 371.667 531.828 370.8H538.171C538.108 371.667 537.961 372.526 537.732 373.364C536.825 373.255 535.913 373.2 535 373.2ZM537.227 374.919C536.656 376.391 535.908 377.787 534.999 379.078C534.088 377.788 533.34 376.391 532.769 374.919C533.51 374.841 534.255 374.801 535 374.8C535.758 374.8 536.504 374.843 537.227 374.919ZM531.828 369.2C531.889 368.308 532.049 367.45 532.268 366.636C534.083 366.854 535.918 366.854 537.733 366.636C537.952 367.449 538.111 368.307 538.171 369.2H531.828ZM535 365.2C534.241 365.2 533.496 365.157 532.772 365.081C533.343 363.609 534.092 362.213 535 360.922C535.911 362.212 536.66 363.609 537.23 365.081C536.505 365.157 535.76 365.2 535 365.2ZM539.767 369.2C539.708 368.247 539.558 367.301 539.319 366.377C540.79 366.079 542.116 365.633 543.209 365.05C543.955 366.282 544.433 367.69 544.559 369.199H539.767V369.2Z" fill="url(#paint2_linear_616_473)"/>
</g>
<path d="M-44 158.5H173.5L281.5 81H480.5L519.5 121.5H1250" stroke="url(#paint3_linear_616_473)" stroke-width="2"/>
<path d="M-47 200.5H180L281.5 139H480.5L519.5 179.5H679.5" stroke="url(#paint4_linear_616_473)" stroke-width="2"/>
<rect x="129" y="139.5" width="38" height="38" rx="7" fill="#18311F"/>
<rect x="129" y="139.5" width="38" height="38" rx="7" stroke="url(#paint5_linear_616_473)" stroke-width="2"/>
<g clip-path="url(#clip2_616_473)">
<path fill-rule="evenodd" clip-rule="evenodd" d="M140.72 152.27C139.884 152.669 138.851 152.522 138.159 151.83C137.28 150.952 137.28 149.526 138.159 148.649C139.037 147.77 140.463 147.77 141.341 148.649C142.033 149.341 142.179 150.373 141.78 151.209L145.773 155.202C147.155 154.254 148.993 154.254 150.375 155.202L151.729 153.848C151.33 153.011 151.477 151.979 152.169 151.286C153.047 150.408 154.473 150.408 155.351 151.286C156.229 152.165 156.229 153.59 155.351 154.469C154.659 155.161 153.626 155.307 152.79 154.908L151.436 156.263C152.383 157.645 152.383 159.482 151.436 160.865L155.28 164.708C156.116 164.309 157.149 164.456 157.841 165.149C158.719 166.026 158.719 167.452 157.841 168.33C156.963 169.208 155.537 169.208 154.659 168.33C153.966 167.638 153.82 166.606 154.219 165.77L150.375 161.925C148.993 162.872 147.155 162.872 145.773 161.925L141.918 165.779C142.317 166.616 142.171 167.648 141.479 168.341C140.601 169.219 139.175 169.219 138.297 168.341C137.418 167.462 137.418 166.037 138.297 165.158C138.989 164.466 140.022 164.32 140.858 164.719L144.712 160.865C143.765 159.482 143.765 157.644 144.712 156.263L140.72 152.27ZM140.418 166.22C140.711 166.512 140.711 166.987 140.418 167.28C140.125 167.573 139.65 167.573 139.357 167.28C139.065 166.987 139.065 166.512 139.357 166.22C139.65 165.926 140.125 165.926 140.418 166.22ZM156.78 166.209C157.073 166.502 157.073 166.977 156.78 167.27C156.487 167.562 156.012 167.562 155.72 167.27C155.427 166.977 155.427 166.502 155.72 166.209C156.012 165.917 156.487 165.917 156.78 166.209ZM149.893 156.744C150.897 157.748 150.897 159.379 149.893 160.383C148.889 161.387 147.258 161.387 146.254 160.383C145.25 159.379 145.25 157.748 146.254 156.744C147.258 155.74 148.889 155.74 149.893 156.744ZM154.29 152.347C154.583 152.64 154.583 153.115 154.29 153.407C153.998 153.701 153.522 153.701 153.23 153.407C152.937 153.115 152.937 152.64 153.23 152.347C153.522 152.054 153.998 152.054 154.29 152.347ZM140.28 149.709C140.573 150.002 140.573 150.477 140.28 150.77C139.987 151.062 139.512 151.062 139.22 150.77C138.927 150.477 138.927 150.002 139.22 149.709C139.512 149.417 139.987 149.417 140.28 149.709Z" fill="url(#paint6_linear_616_473)"/>
</g>
<path d="M-28.9903 282.5H168.51L203 336.5H480.5H519.5H1250" stroke="url(#paint7_linear_616_473)" stroke-width="2"/>
<rect x="312" y="317.5" width="38" height="38" rx="7" fill="#18311F"/>
<rect x="312" y="317.5" width="38" height="38" rx="7" stroke="url(#paint8_linear_616_473)" stroke-width="2"/>
<path d="M334.462 330.401C334.696 330.636 334.915 330.885 335.118 331.148C335.067 331.081 335.016 331.015 334.964 330.948C335.363 331.468 335.694 332.035 335.95 332.638C335.917 332.559 335.884 332.481 335.851 332.403C336.115 333.032 336.294 333.694 336.386 334.371C336.374 334.283 336.362 334.196 336.35 334.109C336.438 334.781 336.438 335.462 336.35 336.134C336.362 336.047 336.374 335.96 336.386 335.873C336.294 336.55 336.115 337.211 335.851 337.841C335.884 337.762 335.917 337.684 335.95 337.606C335.694 338.208 335.363 338.775 334.964 339.295C335.016 339.228 335.067 339.162 335.118 339.096C334.712 339.621 334.241 340.092 333.716 340.498C333.782 340.447 333.848 340.396 333.915 340.344C333.395 340.743 332.828 341.074 332.226 341.33C332.304 341.297 332.382 341.264 332.461 341.231C331.831 341.495 331.169 341.674 330.493 341.766C330.58 341.754 330.667 341.742 330.754 341.73C330.082 341.818 329.401 341.818 328.729 341.73C328.816 341.742 328.903 341.754 328.991 341.766C328.314 341.674 327.652 341.495 327.023 341.231C327.101 341.264 327.179 341.297 327.258 341.33C326.655 341.074 326.088 340.743 325.568 340.344C325.635 340.396 325.701 340.447 325.768 340.498C325.243 340.092 324.772 339.621 324.365 339.096C324.416 339.162 324.468 339.228 324.519 339.295C324.12 338.775 323.789 338.208 323.533 337.606C323.566 337.684 323.599 337.762 323.632 337.841C323.368 337.211 323.189 336.55 323.098 335.873C323.109 335.96 323.121 336.047 323.133 336.134C323.045 335.462 323.045 334.781 323.133 334.109C323.121 334.196 323.109 334.283 323.098 334.371C323.189 333.694 323.368 333.032 323.632 332.403C323.599 332.481 323.566 332.559 323.533 332.638C323.789 332.035 324.12 331.468 324.519 330.948C324.468 331.015 324.416 331.081 324.365 331.148C324.772 330.623 325.243 330.152 325.768 329.745C325.701 329.796 325.635 329.848 325.568 329.899C326.088 329.5 326.655 329.169 327.258 328.913C327.179 328.946 327.101 328.979 327.023 329.012C327.652 328.748 328.314 328.569 328.991 328.478C328.903 328.489 328.816 328.501 328.729 328.513C329.401 328.425 330.082 328.425 330.754 328.513C330.667 328.501 330.58 328.489 330.493 328.478C331.169 328.569 331.831 328.748 332.461 329.012C332.382 328.979 332.304 328.946 332.226 328.913C332.828 329.169 333.395 329.5 333.915 329.899C333.848 329.848 333.782 329.796 333.716 329.745C333.978 329.948 334.227 330.167 334.462 330.401C334.842 330.78 335.474 330.781 335.854 330.401C336.233 330.023 336.234 329.388 335.854 329.009C334.132 327.294 331.706 326.349 329.275 326.492C326.832 326.635 324.479 327.811 322.973 329.756C322.586 330.256 322.24 330.773 321.967 331.345C321.702 331.902 321.484 332.484 321.34 333.085C321.051 334.293 321.037 335.527 321.254 336.747C321.684 339.165 323.251 341.323 325.352 342.571C327.414 343.796 329.989 344.092 332.28 343.386C334.621 342.665 336.644 340.915 337.624 338.66C337.871 338.091 338.075 337.514 338.199 336.906C338.321 336.305 338.388 335.687 338.386 335.073C338.383 334.46 338.307 333.842 338.179 333.242C338.05 332.636 337.836 332.059 337.585 331.494C337.174 330.571 336.566 329.724 335.854 329.009C335.476 328.629 334.841 328.631 334.462 329.009C334.082 329.389 334.084 330.021 334.462 330.401Z" fill="url(#paint9_linear_616_473)"/>
<path d="M335.158 340.538L340.226 345.606" stroke="url(#paint10_linear_616_473)" stroke-width="2" stroke-miterlimit="10"/>
<path d="M784.984 424H522.992L453.992 472L259.5 471.5L220.5 472H-510" stroke="url(#paint11_linear_616_473)" stroke-width="2"/>
<path d="M678.5 288H505.5L452.992 240L258.5 240.5L219.5 240H-511" stroke="url(#paint12_linear_616_473)" stroke-width="2"/>
<path d="M679.5 203.5H483L452.992 228L258.5 227.5L219.5 228H-511" stroke="url(#paint13_linear_616_473)" stroke-width="2"/>
<path fill-rule="evenodd" clip-rule="evenodd" d="M476.817 432.143C476.817 429.983 477.679 427.912 479.214 426.385C480.749 424.858 482.83 424 485 424C487.17 424 489.251 424.858 490.786 426.385C492.321 427.912 493.183 429.983 493.183 432.143C493.183 434.302 492.321 436.374 490.786 437.901C489.251 439.428 487.17 440.286 485 440.286C482.83 440.286 480.749 439.428 479.214 437.901C477.679 436.374 476.817 434.302 476.817 432.143ZM470 457.666C470.062 453.748 471.669 450.01 474.475 447.261C477.282 444.511 481.062 442.97 485 442.97C488.938 442.97 492.718 444.511 495.525 447.261C498.331 450.01 499.938 453.748 500 457.666C500.005 457.93 499.932 458.189 499.791 458.413C499.65 458.636 499.446 458.814 499.205 458.924C494.748 460.956 489.903 462.006 485 462C479.934 462 475.121 460.9 470.795 458.924C470.554 458.814 470.35 458.636 470.209 458.413C470.068 458.189 469.995 457.93 470 457.666Z" fill="#A0ACA4"/>
<path fill-rule="evenodd" clip-rule="evenodd" d="M531.271 93.5714C531.271 89.7068 532.823 86.0005 535.585 83.2679C538.347 80.5352 542.094 79 546 79C549.906 79 553.653 80.5352 556.415 83.2679C559.177 86.0005 560.729 89.7068 560.729 93.5714C560.729 97.436 559.177 101.142 556.415 103.875C553.653 106.608 549.906 108.143 546 108.143C542.094 108.143 538.347 106.608 535.585 103.875C532.823 101.142 531.271 97.436 531.271 93.5714ZM519 139.245C519.111 132.233 522.004 125.545 527.055 120.624C532.107 115.704 538.911 112.946 546 112.946C553.089 112.946 559.893 115.704 564.945 120.624C569.996 125.545 572.889 132.233 573 139.245C573.008 139.717 572.877 140.181 572.623 140.581C572.369 140.98 572.003 141.298 571.569 141.495C563.547 145.132 554.825 147.01 546 147C536.881 147 528.217 145.031 520.431 141.495C519.997 141.298 519.631 140.98 519.377 140.581C519.123 140.181 518.992 139.717 519 139.245Z" fill="#A0ACA4"/>
<path fill-rule="evenodd" clip-rule="evenodd" d="M354.544 188.357C354.544 183.754 356.383 179.339 359.656 176.084C362.93 172.829 367.37 171 372 171C376.63 171 381.07 172.829 384.344 176.084C387.617 179.339 389.456 183.754 389.456 188.357C389.456 192.961 387.617 197.375 384.344 200.63C381.07 203.886 376.63 205.714 372 205.714C367.37 205.714 362.93 203.886 359.656 200.63C356.383 197.375 354.544 192.961 354.544 188.357ZM340 242.762C340.131 234.409 343.56 226.443 349.547 220.582C355.534 214.721 363.598 211.436 372 211.436C380.402 211.436 388.466 214.721 394.453 220.582C400.44 226.443 403.869 234.409 404 242.762C404.01 243.324 403.855 243.877 403.554 244.354C403.252 244.83 402.818 245.208 402.304 245.443C392.796 249.775 382.459 252.012 372 252C361.193 252 350.924 249.655 341.696 245.443C341.182 245.208 340.748 244.83 340.446 244.354C340.145 243.877 339.99 243.324 340 242.762Z" fill="#A0ACA4"/>
<path fill-rule="evenodd" clip-rule="evenodd" d="M445.272 43.7857C445.272 41.4556 446.191 39.2209 447.828 37.5733C449.465 35.9256 451.685 35 454 35C456.315 35 458.535 35.9256 460.172 37.5733C461.809 39.2209 462.728 41.4556 462.728 43.7857C462.728 46.1158 461.809 48.3505 460.172 49.9981C458.535 51.6458 456.315 52.5714 454 52.5714C451.685 52.5714 449.465 51.6458 447.828 49.9981C446.191 48.3505 445.272 46.1158 445.272 43.7857ZM438 71.324C438.066 67.0961 439.78 63.0636 442.774 60.097C445.767 57.1304 449.799 55.4677 454 55.4677C458.201 55.4677 462.233 57.1304 465.226 60.097C468.22 63.0636 469.934 67.0961 470 71.324C470.005 71.6087 469.927 71.8886 469.777 72.1296C469.626 72.3706 469.409 72.5622 469.152 72.6809C464.398 74.8738 459.229 76.0061 454 76C448.596 76 443.462 74.8129 438.848 72.6809C438.591 72.5622 438.374 72.3706 438.223 72.1296C438.073 71.8886 437.995 71.6087 438 71.324Z" fill="#3F5144"/>
<path fill-rule="evenodd" clip-rule="evenodd" d="M603.908 226.071C603.908 224.196 604.655 222.397 605.985 221.071C607.315 219.745 609.119 219 611 219C612.881 219 614.685 219.745 616.015 221.071C617.345 222.397 618.092 224.196 618.092 226.071C618.092 227.947 617.345 229.746 616.015 231.072C614.685 232.398 612.881 233.143 611 233.143C609.119 233.143 607.315 232.398 605.985 231.072C604.655 229.746 603.908 227.947 603.908 226.071ZM598 248.236C598.053 244.833 599.446 241.588 601.878 239.2C604.311 236.812 607.587 235.474 611 235.474C614.413 235.474 617.689 236.812 620.122 239.2C622.554 241.588 623.947 244.833 624 248.236C624.004 248.466 623.941 248.691 623.819 248.885C623.696 249.079 623.52 249.233 623.311 249.329C619.449 251.094 615.249 252.005 611 252C606.609 252 602.438 251.045 598.689 249.329C598.48 249.233 598.304 249.079 598.181 248.885C598.059 248.691 597.996 248.466 598 248.236Z" fill="#3F5144"/>
<path fill-rule="evenodd" clip-rule="evenodd" d="M409.908 367.071C409.908 365.196 410.655 363.397 411.985 362.071C413.315 360.745 415.119 360 417 360C418.881 360 420.685 360.745 422.015 362.071C423.345 363.397 424.092 365.196 424.092 367.071C424.092 368.947 423.345 370.746 422.015 372.072C420.685 373.398 418.881 374.143 417 374.143C415.119 374.143 413.315 373.398 411.985 372.072C410.655 370.746 409.908 368.947 409.908 367.071ZM404 389.236C404.053 385.833 405.446 382.588 407.878 380.2C410.311 377.812 413.587 376.474 417 376.474C420.413 376.474 423.689 377.812 426.122 380.2C428.554 382.588 429.947 385.833 430 389.236C430.004 389.466 429.941 389.691 429.819 389.885C429.696 390.079 429.52 390.233 429.311 390.329C425.449 392.094 421.249 393.005 417 393C412.609 393 408.438 392.045 404.689 390.329C404.48 390.233 404.304 390.079 404.181 389.885C404.059 389.691 403.996 389.466 404 389.236Z" fill="#3F5144"/>
<path fill-rule="evenodd" clip-rule="evenodd" d="M150.908 389.071C150.908 387.196 151.655 385.397 152.985 384.071C154.315 382.745 156.119 382 158 382C159.881 382 161.685 382.745 163.015 384.071C164.345 385.397 165.092 387.196 165.092 389.071C165.092 390.947 164.345 392.746 163.015 394.072C161.685 395.398 159.881 396.143 158 396.143C156.119 396.143 154.315 395.398 152.985 394.072C151.655 392.746 150.908 390.947 150.908 389.071ZM145 411.236C145.053 407.833 146.446 404.588 148.878 402.2C151.311 399.812 154.587 398.474 158 398.474C161.413 398.474 164.689 399.812 167.122 402.2C169.554 404.588 170.947 407.833 171 411.236C171.004 411.466 170.941 411.691 170.819 411.885C170.696 412.079 170.52 412.233 170.311 412.329C166.449 414.094 162.249 415.005 158 415C153.609 415 149.438 414.045 145.689 412.329C145.48 412.233 145.304 412.079 145.181 411.885C145.059 411.691 144.996 411.466 145 411.236Z" fill="#3F5144"/>
<path fill-rule="evenodd" clip-rule="evenodd" d="M316.908 165.071C316.908 163.196 317.655 161.397 318.985 160.071C320.315 158.745 322.119 158 324 158C325.881 158 327.685 158.745 329.015 160.071C330.345 161.397 331.092 163.196 331.092 165.071C331.092 166.947 330.345 168.746 329.015 170.072C327.685 171.398 325.881 172.143 324 172.143C322.119 172.143 320.315 171.398 318.985 170.072C317.655 168.746 316.908 166.947 316.908 165.071ZM311 187.236C311.053 183.833 312.446 180.588 314.878 178.2C317.311 175.812 320.587 174.474 324 174.474C327.413 174.474 330.689 175.812 333.122 178.2C335.554 180.588 336.947 183.833 337 187.236C337.004 187.466 336.941 187.691 336.819 187.885C336.696 188.079 336.52 188.233 336.311 188.329C332.449 190.094 328.249 191.005 324 191C319.609 191 315.438 190.045 311.689 188.329C311.48 188.233 311.304 188.079 311.181 187.885C311.059 187.691 310.996 187.466 311 187.236Z" fill="#3F5144"/>
<path fill-rule="evenodd" clip-rule="evenodd" d="M265.09 422.714C265.09 419.873 266.239 417.147 268.285 415.138C270.331 413.129 273.106 412 276 412C278.894 412 281.669 413.129 283.715 415.138C285.761 417.147 286.91 419.873 286.91 422.714C286.91 425.556 285.761 428.281 283.715 430.29C281.669 432.3 278.894 433.429 276 433.429C273.106 433.429 270.331 432.3 268.285 430.29C266.239 428.281 265.09 425.556 265.09 422.714ZM256 456.298C256.082 451.142 258.225 446.224 261.967 442.606C265.709 438.988 270.749 436.961 276 436.961C281.251 436.961 286.291 438.988 290.033 442.606C293.775 446.224 295.918 451.142 296 456.298C296.006 456.645 295.909 456.986 295.721 457.28C295.533 457.574 295.261 457.808 294.94 457.952C288.998 460.627 282.537 462.007 276 462C269.245 462 262.828 460.552 257.06 457.952C256.739 457.808 256.467 457.574 256.279 457.28C256.091 456.986 255.994 456.645 256 456.298Z" fill="#A0ACA4"/>
<path fill-rule="evenodd" clip-rule="evenodd" d="M216.589 69.7143C216.589 66.077 218.055 62.5887 220.664 60.0168C223.272 57.4449 226.811 56 230.5 56C234.189 56 237.728 57.4449 240.336 60.0168C242.945 62.5887 244.411 66.077 244.411 69.7143C244.411 73.3515 242.945 76.8398 240.336 79.4117C237.728 81.9837 234.189 83.4286 230.5 83.4286C226.811 83.4286 223.272 81.9837 220.664 79.4117C218.055 76.8398 216.589 73.3515 216.589 69.7143ZM205 112.701C205.105 106.101 207.837 99.8066 212.608 95.1758C217.379 90.5451 223.805 87.9495 230.5 87.9495C237.195 87.9495 243.621 90.5451 248.392 95.1758C253.163 99.8066 255.895 106.101 256 112.701C256.008 113.145 255.884 113.582 255.644 113.958C255.404 114.335 255.058 114.634 254.649 114.819C247.072 118.242 238.834 120.009 230.5 120C221.888 120 213.705 118.147 206.351 114.819C205.942 114.634 205.596 114.335 205.356 113.958C205.116 113.582 204.992 113.145 205 112.701Z" fill="#A0ACA4"/>
<path fill-rule="evenodd" clip-rule="evenodd" d="M179.135 265.286C179.135 261.762 180.543 258.383 183.049 255.891C185.556 253.4 188.955 252 192.5 252C196.045 252 199.444 253.4 201.951 255.891C204.457 258.383 205.865 261.762 205.865 265.286C205.865 268.809 204.457 272.189 201.951 274.68C199.444 277.172 196.045 278.571 192.5 278.571C188.955 278.571 185.556 277.172 183.049 274.68C180.543 272.189 179.135 268.809 179.135 265.286ZM168 306.929C168.101 300.536 170.726 294.438 175.309 289.952C179.893 285.466 186.068 282.951 192.5 282.951C198.932 282.951 205.107 285.466 209.691 289.952C214.274 294.438 216.899 300.536 217 306.929C217.007 307.359 216.889 307.783 216.658 308.147C216.428 308.512 216.095 308.801 215.702 308.981C208.422 312.297 200.507 314.009 192.5 314C184.226 314 176.364 312.205 169.298 308.981C168.905 308.801 168.572 308.512 168.342 308.147C168.111 307.783 167.993 307.359 168 306.929Z" fill="#A0ACA4"/>
<path fill-rule="evenodd" clip-rule="evenodd" d="M616.908 242.071C616.908 240.196 617.655 238.397 618.985 237.071C620.315 235.745 622.119 235 624 235C625.881 235 627.685 235.745 629.015 237.071C630.345 238.397 631.092 240.196 631.092 242.071C631.092 243.947 630.345 245.746 629.015 247.072C627.685 248.398 625.881 249.143 624 249.143C622.119 249.143 620.315 248.398 618.985 247.072C617.655 245.746 616.908 243.947 616.908 242.071ZM611 264.236C611.053 260.833 612.446 257.588 614.878 255.2C617.311 252.812 620.587 251.474 624 251.474C627.413 251.474 630.689 252.812 633.122 255.2C635.554 257.588 636.947 260.833 637 264.236C637.004 264.466 636.941 264.691 636.819 264.885C636.696 265.079 636.52 265.233 636.311 265.329C632.449 267.094 628.249 268.005 624 268C619.609 268 615.438 267.045 611.689 265.329C611.48 265.233 611.304 265.079 611.181 264.885C611.059 264.691 610.996 264.466 611 264.236Z" fill="#A0ACA4"/>
<path fill-rule="evenodd" clip-rule="evenodd" d="M479.908 273.071C479.908 271.196 480.655 269.397 481.985 268.071C483.315 266.745 485.119 266 487 266C488.881 266 490.685 266.745 492.015 268.071C493.345 269.397 494.092 271.196 494.092 273.071C494.092 274.947 493.345 276.746 492.015 278.072C490.685 279.398 488.881 280.143 487 280.143C485.119 280.143 483.315 279.398 481.985 278.072C480.655 276.746 479.908 274.947 479.908 273.071ZM474 295.236C474.053 291.833 475.446 288.588 477.878 286.2C480.311 283.812 483.587 282.474 487 282.474C490.413 282.474 493.689 283.812 496.122 286.2C498.554 288.588 499.947 291.833 500 295.236C500.004 295.466 499.941 295.691 499.819 295.885C499.696 296.079 499.52 296.233 499.311 296.329C495.449 298.094 491.249 299.005 487 299C482.609 299 478.438 298.045 474.689 296.329C474.48 296.233 474.304 296.079 474.181 295.885C474.059 295.691 473.996 295.466 474 295.236Z" fill="#3F5144"/>
</g>
<defs>
<linearGradient id="paint0_linear_616_473" x1="675.5" y1="408" x2="-178.501" y2="408.75" gradientUnits="userSpaceOnUse">
<stop stop-color="#6A6F6C"/>
<stop offset="0.661162" stop-color="#18311F"/>
</linearGradient>
<linearGradient id="paint1_linear_616_473" x1="575" y1="375" x2="575" y2="441.25" gradientUnits="userSpaceOnUse">
<stop stop-color="#51E1BD"/>
<stop offset="1" stop-color="#CBE47B"/>
</linearGradient>
<linearGradient id="paint2_linear_616_473" x1="534.999" y1="350.4" x2="534.999" y2="387.5" gradientUnits="userSpaceOnUse">
<stop stop-color="#51E1BD"/>
<stop offset="1" stop-color="#CBE47B"/>
</linearGradient>
<linearGradient id="paint3_linear_616_473" x1="-44" y1="119.75" x2="861.501" y2="119.75" gradientUnits="userSpaceOnUse">
<stop offset="0.0442896" stop-color="#18311F"/>
<stop offset="0.796233" stop-color="#6A6F6C"/>
</linearGradient>
<linearGradient id="paint4_linear_616_473" x1="-44" y1="177.75" x2="679" y2="177.75" gradientUnits="userSpaceOnUse">
<stop offset="0.155418" stop-color="#18311F"/>
<stop offset="1" stop-color="#6A6F6C"/>
</linearGradient>
<linearGradient id="paint5_linear_616_473" x1="148" y1="123.5" x2="148" y2="189.75" gradientUnits="userSpaceOnUse">
<stop stop-color="#51E1BD"/>
<stop offset="1" stop-color="#CBE47B"/>
</linearGradient>
<linearGradient id="paint6_linear_616_473" x1="148" y1="140.112" x2="148" y2="174.908" gradientUnits="userSpaceOnUse">
<stop stop-color="#51E1BD"/>
<stop offset="1" stop-color="#CBE47B"/>
</linearGradient>
<linearGradient id="paint7_linear_616_473" x1="-44" y1="297.75" x2="861.501" y2="297.75" gradientUnits="userSpaceOnUse">
<stop offset="0.101524" stop-color="#18311F"/>
<stop offset="0.796095" stop-color="#6A6F6C"/>
</linearGradient>
<linearGradient id="paint8_linear_616_473" x1="331" y1="301.5" x2="331" y2="367.75" gradientUnits="userSpaceOnUse">
<stop stop-color="#51E1BD"/>
<stop offset="1" stop-color="#CBE47B"/>
</linearGradient>
<linearGradient id="paint9_linear_616_473" x1="329.746" y1="319.996" x2="329.746" y2="348.624" gradientUnits="userSpaceOnUse">
<stop stop-color="#51E1BD"/>
<stop offset="1" stop-color="#CBE47B"/>
</linearGradient>
<linearGradient id="paint10_linear_616_473" x1="337.692" y1="338.637" x2="337.692" y2="347.031" gradientUnits="userSpaceOnUse">
<stop stop-color="#51E1BD"/>
<stop offset="1" stop-color="#CBE47B"/>
</linearGradient>
<linearGradient id="paint11_linear_616_473" x1="675.5" y1="472" x2="-121.5" y2="473.75" gradientUnits="userSpaceOnUse">
<stop stop-color="#6A6F6C"/>
<stop offset="0.569755" stop-color="#18311F"/>
</linearGradient>
<linearGradient id="paint12_linear_616_473" x1="678" y1="238.25" x2="-122.501" y2="238.25" gradientUnits="userSpaceOnUse">
<stop stop-color="#6A6F6C"/>
<stop offset="0.800277" stop-color="#18311F"/>
</linearGradient>
<linearGradient id="paint13_linear_616_473" x1="679" y1="229.75" x2="-122.501" y2="229.75" gradientUnits="userSpaceOnUse">
<stop stop-color="#6A6F6C"/>
<stop offset="0.759304" stop-color="#18311F"/>
</linearGradient>
<clipPath id="clip0_616_473">
<rect width="680" height="548" fill="white"/>
</clipPath>
<clipPath id="clip1_616_473">
<rect width="24" height="24" fill="white" transform="translate(523 358)"/>
</clipPath>
<clipPath id="clip2_616_473">
<rect width="24" height="24" fill="white" transform="translate(136 146.5)"/>
</clipPath>
</defs>
</svg>
