<svg width="214" height="63" viewBox="0 0 214 63" fill="none" xmlns="http://www.w3.org/2000/svg">
<path fill-rule="evenodd" clip-rule="evenodd" d="M66.1198 45.2742C68.6173 41.0807 69.0045 35.6354 66.2037 30.8096L53.2324 8.46C51.7389 5.88674 49.5957 3.75087 47.0174 2.26617C44.439 0.781473 41.5159 1.84774e-05 38.5407 0H28.9587C28.9419 0 28.9252 0.000398509 28.9085 0.00118661C26.3718 0.00998964 23.8808 0.679291 21.6809 1.94362C19.4663 3.21639 17.6242 5.04765 16.3384 7.25464L2.97261 30.1963C1.66173 32.4465 0.967503 35.0026 0.960022 37.6068C0.952541 40.2109 1.63211 42.7711 2.93004 45.0288L4.77296 48.2339L7.7836 53.7575C8.89025 56.239 10.6928 58.3469 12.9734 59.8256C15.2716 61.3157 17.9551 62.1017 20.6941 62.0871L20.6964 62.0871L48.027 62.0567C50.7274 62.0535 53.3764 61.3194 55.6931 59.9323C58.0099 58.5451 59.9079 56.5565 61.1857 54.1777L62.5201 51.6933L66.1198 45.2742ZM34.2425 3.34912C35.864 4.16948 37.2718 5.3559 38.3551 6.81428L54.904 35.3283C54.9336 35.3792 54.9615 35.4308 54.9879 35.4832C55.1948 35.8944 55.3034 36.349 55.3042 36.8111C55.3051 37.3324 55.1687 37.8447 54.9086 38.2964C54.6485 38.7481 54.2739 39.1233 53.8226 39.3842C53.3713 39.6452 52.8593 39.7825 52.3381 39.7826H47.8703L35.3502 17.8677C35.3443 17.8564 35.3381 17.8452 35.3318 17.834L32.7766 13.3615C32.3514 12.6173 31.7376 11.9985 30.9968 11.5674C30.256 11.1363 29.4145 10.9083 28.5575 10.9064L28.5575 10.9079C28.5572 10.9079 28.5578 10.9079 28.5575 10.9079C27.7003 10.9061 26.8569 11.1305 26.1142 11.5585C25.3716 11.9864 24.7549 12.6029 24.3265 13.3452L8.45004 40.8437L8.44718 40.8487L8.43018 40.8785C7.31686 42.7814 6.66944 44.9202 6.54021 47.1202L4.73948 43.9884C3.62451 42.049 3.04077 39.8498 3.0472 37.6128C3.05363 35.3757 3.64999 33.1799 4.77608 31.2469L18.1418 8.30534C19.2439 6.4137 20.8228 4.84413 22.7209 3.75323C24.619 2.66236 26.7699 2.0883 28.9592 2.08829C30.7947 2.08854 32.6046 2.52044 34.2425 3.34912ZM33.2231 18.352L30.9642 14.3981C30.7211 13.9728 30.3701 13.619 29.9467 13.3727C29.5232 13.1263 29.0422 12.9961 28.5523 12.9951C28.0623 12.994 27.5808 13.1223 27.1563 13.3669C26.7317 13.6116 26.3792 13.9638 26.1344 14.3882L10.2605 41.8823L10.2576 41.8873L10.2344 41.9281C9.27264 43.5702 8.71884 45.419 8.61954 47.3195C8.52024 49.2198 8.87816 51.1162 9.66339 52.8495L9.66442 52.8501L9.66725 52.8564C10.6075 54.9914 12.1514 56.8051 14.1089 58.0743C16.0663 59.3434 18.3521 60.0128 20.6849 59.9999L20.6895 59.9999L48.0247 59.9695C50.3481 59.9668 52.6275 59.3351 54.6209 58.1415C56.6143 56.9479 58.2475 55.2369 59.3469 53.1901L60.6859 50.6972L60.6951 50.6806L60.8253 50.4483C59.6793 51.0894 58.4255 51.5786 57.0833 51.8819C56.0314 52.1222 54.951 52.2423 53.8629 52.2368H22.9016C21.9735 52.2369 21.0615 51.993 20.2575 51.5294C19.4534 51.0658 18.7854 50.3989 18.3205 49.5956C17.8556 48.7923 17.6102 47.8808 17.6089 46.9526C17.6075 46.0245 17.8503 45.1123 18.3129 44.3076L33.2231 18.352ZM57.6476 49.5636C56.4722 49.9423 55.2045 50.1495 53.865 50.1495L22.9011 50.1496C22.3391 50.1497 21.7869 50.002 21.3 49.7212C20.8131 49.4405 20.4085 49.0366 20.127 48.5501C19.8455 48.0636 19.6968 47.5117 19.696 46.9496C19.6952 46.3875 19.8424 45.8348 20.1226 45.3476L22.1204 41.8698H47.2173C47.2332 41.8705 47.2492 41.8709 47.2652 41.8709H52.3387C53.2268 41.8708 54.0991 41.6367 54.8678 41.1923C55.6366 40.7478 56.2748 40.1086 56.7179 39.339C57.1611 38.5693 57.3935 37.6966 57.392 36.8086C57.3906 36.0193 57.2045 35.2426 56.85 34.5403C56.8055 34.4521 56.7584 34.3652 56.7087 34.2795L40.1313 5.71668L40.1307 5.71559C40.1118 5.68301 40.0912 5.65147 40.0688 5.62111C39.0301 4.20881 37.7341 3.01052 36.2525 2.08719H38.5407C41.1504 2.0872 43.7143 2.77264 45.9759 4.07492C48.2374 5.37719 50.1173 7.25063 51.4273 9.50771L64.3985 31.8573C66.7543 35.9164 66.4682 40.4889 64.4198 44.0469C64.4046 44.0692 64.3901 44.0922 64.3764 44.1159C64.2868 44.2715 64.1938 44.4248 64.0976 44.5757C63.0904 46.1395 61.7307 47.4793 60.1003 48.4532C60.0461 48.4855 59.9917 48.5173 59.9369 48.5487C59.2081 48.9673 58.4406 49.3068 57.6476 49.5636ZM23.3194 39.7826H45.4665L34.4233 20.4529L23.3194 39.7826Z" fill="#18311F"/>
<path fill-rule="evenodd" clip-rule="evenodd" d="M172.493 4.51732C172.296 4.32948 172.141 4.10231 172.038 3.85061C171.935 3.59891 171.886 3.32832 171.894 3.05644C171.888 2.7883 171.938 2.52174 172.041 2.27413C172.144 2.02652 172.298 1.80341 172.493 1.61931C172.694 1.42827 172.931 1.27908 173.19 1.18041C173.449 1.08174 173.725 1.03556 174.002 1.04456C174.275 1.03714 174.547 1.08413 174.802 1.1828C175.057 1.28147 175.29 1.42985 175.487 1.61931C175.682 1.80343 175.836 2.02656 175.939 2.27416C176.042 2.52176 176.092 2.78829 176.086 3.05644C176.094 3.32832 176.045 3.59892 175.942 3.85061C175.838 4.1023 175.684 4.32945 175.487 4.51732C175.29 4.70681 175.057 4.85522 174.802 4.95393C174.547 5.05264 174.275 5.09969 174.002 5.0923C173.725 5.1013 173.449 5.05511 173.19 4.9564C172.931 4.85769 172.694 4.70843 172.493 4.51732ZM172.134 6.31379H175.846V19.5826H172.134V6.31379ZM90.7249 2.81677H86.9169V19.5825H90.7249V2.81677ZM113.539 8.40935C113.163 7.69858 112.588 7.11208 111.886 6.72082C111.149 6.31525 110.319 6.10907 109.478 6.1227C108.622 6.12127 107.777 6.30508 106.999 6.6615C106.193 7.03306 105.484 7.58646 104.927 8.27827C104.711 7.83676 104.4 7.44831 104.017 7.14053C103.604 6.80618 103.134 6.55048 102.629 6.38612C102.08 6.20713 101.506 6.11816 100.928 6.1227C100.136 6.11405 99.3529 6.2904 98.6409 6.63772C98.0357 6.90996 97.5055 7.325 97.096 7.84721V6.31436H93.3846V19.5832H97.0968V13.7152C97.077 12.9126 97.1862 12.112 97.4202 11.344C97.5881 10.7789 97.9118 10.2726 98.3543 9.88307C98.7694 9.54495 99.2918 9.36652 99.827 9.38005C100.117 9.36558 100.406 9.41863 100.672 9.53502C100.938 9.6514 101.174 9.82794 101.36 10.0507C101.727 10.4977 101.911 11.1045 101.911 11.871V19.5832H105.599V13.7152C105.579 12.9126 105.688 12.112 105.922 11.344C106.09 10.7789 106.414 10.2725 106.856 9.88307C107.264 9.54754 107.778 9.36908 108.306 9.38005C108.599 9.3639 108.893 9.41605 109.163 9.53242C109.433 9.6488 109.672 9.82622 109.862 10.0507C110.23 10.4977 110.413 11.1045 110.413 11.871V19.5832H114.125V10.9129C114.143 10.0424 113.941 9.18157 113.539 8.40935ZM116.544 6.31374H120.256V7.75085C120.689 7.21491 121.255 6.80192 121.897 6.55314C122.615 6.26113 123.385 6.11461 124.16 6.12208C125.317 6.09944 126.459 6.38905 127.465 6.96045C128.424 7.51983 129.201 8.34284 129.705 9.33146C130.261 10.4458 130.536 11.6791 130.507 12.9241C130.537 14.1808 130.262 15.4259 129.705 16.5528C129.199 17.5512 128.413 18.3797 127.442 18.9358C126.426 19.5056 125.277 19.7949 124.112 19.7742C123.344 19.7832 122.583 19.6365 121.873 19.3429C121.24 19.0898 120.683 18.6772 120.256 18.1454V23.9416H116.544L116.544 6.31374ZM125.226 16.1575C125.721 15.8455 126.119 15.4018 126.376 14.8761C126.666 14.2756 126.809 13.6149 126.795 12.9481C126.809 12.2813 126.666 11.6205 126.376 11.02C126.119 10.4944 125.721 10.0507 125.226 9.73874C124.718 9.42969 124.132 9.27185 123.537 9.28369C122.931 9.27056 122.333 9.42824 121.812 9.73874C121.313 10.046 120.914 10.491 120.662 11.02C120.38 11.6226 120.24 12.2826 120.255 12.9481C120.24 13.6136 120.379 14.2735 120.662 14.8761C120.914 15.4052 121.313 15.8503 121.812 16.1575C122.333 16.4681 122.931 16.6258 123.537 16.6126C124.132 16.6245 124.718 16.4666 125.226 16.1575ZM132.746 16.4688C133.334 17.4957 134.196 18.3378 135.237 18.8998C136.353 19.496 137.602 19.797 138.866 19.7741C140.126 19.794 141.371 19.4932 142.483 18.8998C143.529 18.3406 144.396 17.4981 144.986 16.4688C145.594 15.3963 145.904 14.1807 145.885 12.9481C145.904 11.7154 145.594 10.4999 144.986 9.42733C144.396 8.39819 143.529 7.55572 142.483 6.99615C141.371 6.40312 140.126 6.10235 138.866 6.12204C137.602 6.09943 136.353 6.40031 135.237 6.99615C134.197 7.55856 133.334 8.40063 132.746 9.42733C132.139 10.5 131.829 11.7155 131.848 12.9481C131.829 14.1807 132.139 15.3962 132.746 16.4688ZM141.716 14.876C141.462 15.4069 141.064 15.8552 140.566 16.1694H140.566C140.056 16.485 139.466 16.6471 138.866 16.6365C138.266 16.6473 137.676 16.4851 137.165 16.1694C136.668 15.8553 136.269 15.407 136.016 14.876C135.733 14.2734 135.594 13.6135 135.609 12.9481C135.594 12.2825 135.733 11.6226 136.016 11.0199C136.269 10.4891 136.668 10.0408 137.165 9.7267C137.676 9.41099 138.266 9.24886 138.866 9.25966C139.466 9.24897 140.056 9.41109 140.566 9.7267C141.064 10.0409 141.462 10.4892 141.716 11.0199C141.999 11.6226 142.138 12.2825 142.123 12.9481C142.138 13.6135 141.999 14.2734 141.716 14.876ZM149.871 19.1995C149.075 18.8503 148.388 18.2916 147.884 17.5827C147.39 16.8671 147.119 16.021 147.105 15.1515H150.626C150.637 15.3941 150.699 15.6318 150.808 15.8486C150.917 16.0654 151.072 16.2565 151.261 16.409C151.695 16.7229 152.223 16.8792 152.758 16.852C153.196 16.8761 153.632 16.7632 154.003 16.5289C154.147 16.4335 154.264 16.3033 154.343 16.1504C154.423 15.9974 154.463 15.8269 154.458 15.6545C154.461 15.5183 154.433 15.3832 154.377 15.259C154.321 15.1347 154.238 15.0244 154.135 14.9361C153.898 14.7326 153.62 14.5816 153.32 14.493C152.993 14.3892 152.542 14.2575 151.967 14.0979C151.187 13.9347 150.422 13.7063 149.68 13.4152C149.067 13.157 148.527 12.7494 148.111 12.2297C147.664 11.687 147.44 10.9604 147.441 10.0502C147.434 9.33832 147.642 8.64108 148.039 8.05007C148.461 7.43222 149.045 6.94319 149.728 6.63716C150.537 6.27661 151.417 6.10068 152.302 6.12214C153.273 6.10378 154.238 6.27885 155.141 6.63716C155.911 6.94011 156.579 7.45493 157.069 8.12203C157.538 8.78648 157.804 9.57278 157.835 10.3855H154.338C154.323 10.1638 154.259 9.94814 154.152 9.75367C154.044 9.55919 153.895 9.39062 153.716 9.25976C153.309 8.97651 152.822 8.83351 152.327 8.85246C151.958 8.83638 151.591 8.92797 151.273 9.11608C151.145 9.19236 151.04 9.30138 150.968 9.4319C150.897 9.56243 150.861 9.70972 150.866 9.85852C150.861 9.9899 150.888 10.1205 150.944 10.2393C151 10.3581 151.085 10.4616 151.189 10.541C151.418 10.7158 151.678 10.8458 151.956 10.9243C152.25 11.0122 152.693 11.12 153.285 11.2477C154.095 11.3987 154.892 11.6149 155.668 11.8942C156.315 12.1459 156.882 12.5681 157.309 13.1158C157.772 13.6909 158.003 14.4892 158.003 15.5108C158.022 16.3112 157.792 17.0975 157.345 17.7619C156.882 18.4202 156.243 18.9348 155.501 19.2468C154.634 19.6128 153.699 19.792 152.758 19.7728C151.766 19.7924 150.781 19.5968 149.871 19.1995ZM160.051 17.5827C160.555 18.2916 161.242 18.8503 162.038 19.1995C162.948 19.5968 163.933 19.7924 164.925 19.7728C165.866 19.792 166.801 19.6128 167.668 19.2468C168.41 18.9348 169.049 18.4202 169.512 17.7619C169.958 17.0975 170.189 16.3112 170.17 15.5108C170.17 14.4892 169.939 13.6909 169.476 13.1158C169.049 12.5681 168.482 12.1459 167.835 11.8942C167.059 11.6149 166.262 11.3987 165.452 11.2477C164.86 11.12 164.417 11.0122 164.123 10.9243C163.845 10.8458 163.585 10.7158 163.356 10.541C163.252 10.4616 163.167 10.3581 163.111 10.2393C163.055 10.1205 163.028 9.98991 163.033 9.85853C163.028 9.70972 163.064 9.56243 163.135 9.43191C163.207 9.30139 163.312 9.19236 163.44 9.11608C163.758 8.92797 164.125 8.83638 164.494 8.85246C164.989 8.83351 165.476 8.97652 165.883 9.25977C166.062 9.39063 166.211 9.5592 166.319 9.75367C166.426 9.94814 166.49 10.1638 166.505 10.3855H170.002C169.971 9.57278 169.705 8.78648 169.236 8.12203C168.746 7.45493 168.078 6.94012 167.308 6.63716C166.405 6.27887 165.44 6.1038 164.47 6.12214C163.584 6.10067 162.704 6.27659 161.895 6.63716C161.212 6.94319 160.628 7.43222 160.206 8.05007C159.809 8.64108 159.601 9.33832 159.608 10.0502C159.607 10.9604 159.831 11.687 160.278 12.2297C160.694 12.7494 161.234 13.157 161.847 13.4152C162.589 13.7063 163.354 13.9347 164.134 14.0979C164.709 14.2575 165.16 14.3892 165.487 14.493C165.787 14.5816 166.065 14.7326 166.302 14.9361C166.405 15.0245 166.488 15.1348 166.544 15.259C166.6 15.3832 166.628 15.5183 166.625 15.6545C166.63 15.8269 166.59 15.9974 166.51 16.1504C166.431 16.3033 166.314 16.4335 166.17 16.5289C165.799 16.7632 165.363 16.8761 164.925 16.852C164.39 16.8792 163.862 16.7229 163.428 16.409C163.239 16.2565 163.084 16.0655 162.975 15.8486C162.865 15.6318 162.804 15.3941 162.793 15.1515H159.272C159.286 16.021 159.557 16.8671 160.051 17.5827ZM182.097 18.1216C182.525 18.6547 183.081 19.0708 183.714 19.3311C184.422 19.6325 185.185 19.7835 185.954 19.7746C187.123 19.7983 188.276 19.5088 189.295 18.9362C190.261 18.3773 191.043 17.5492 191.546 16.5532C192.103 15.4263 192.378 14.1812 192.348 12.9246C192.378 11.6795 192.102 10.4462 191.546 9.33186C191.042 8.34322 190.265 7.52022 189.307 6.96085C188.3 6.38945 187.158 6.09984 186.001 6.12248C185.225 6.11515 184.455 6.26588 183.738 6.56554C183.096 6.82152 182.531 7.23799 182.097 7.77503V2.62573H178.385V19.5825H182.097V18.1216ZM188.204 14.8761C187.953 15.405 187.554 15.85 187.055 16.1575C186.542 16.4657 185.953 16.6234 185.354 16.6126C184.76 16.6246 184.174 16.4667 183.666 16.1575C183.171 15.8457 182.772 15.4019 182.516 14.8761C182.225 14.2757 182.082 13.6149 182.097 12.9481C182.082 12.2813 182.226 11.6204 182.516 11.02C182.773 10.4942 183.171 10.0505 183.666 9.73873C184.174 9.42957 184.76 9.27172 185.354 9.28368C185.953 9.27295 186.542 9.43062 187.055 9.73873C187.553 10.0462 187.953 10.4911 188.204 11.02C188.487 11.6227 188.626 12.2826 188.611 12.9481C188.626 13.6136 188.487 14.2734 188.204 14.8761ZM194.312 2.62554H198.024V19.5823H194.312V2.62554ZM200.79 16.4805C201.329 17.4994 202.153 18.3398 203.161 18.8999C204.281 19.5051 205.54 19.8065 206.813 19.7739C207.857 19.7916 208.893 19.5917 209.855 19.1869C210.703 18.8297 211.454 18.2756 212.046 17.5703C212.607 16.8959 212.983 16.0869 213.136 15.2231H209.328C209.274 15.4507 209.172 15.6644 209.03 15.8501C208.888 16.0358 208.708 16.1894 208.502 16.3009C207.983 16.5755 207.4 16.7077 206.813 16.684C206.208 16.7001 205.609 16.5555 205.077 16.2649C204.575 15.9686 204.18 15.5196 203.951 14.9835C203.789 14.5988 203.675 14.1966 203.612 13.7862H213.137C213.356 12.4768 213.219 11.1327 212.741 9.8941C212.291 8.74575 211.48 7.77484 210.43 7.12778C209.298 6.44012 207.993 6.091 206.67 6.12174C205.459 6.10077 204.264 6.40248 203.209 6.99588C202.204 7.56938 201.379 8.41119 200.826 9.42706C200.24 10.507 199.943 11.7196 199.963 12.9478C199.94 14.1758 200.224 15.3902 200.79 16.4805ZM203.762 11.1516H209.304C209.281 10.7317 209.153 10.3242 208.933 9.96583C208.715 9.62059 208.398 9.34927 208.023 9.18743C207.596 9.0047 207.134 8.91492 206.67 8.92404C206.069 8.90156 205.475 9.05112 204.957 9.3551C204.478 9.67207 204.113 10.1336 203.915 10.6725C203.857 10.8302 203.806 10.99 203.762 11.1516ZM90.4136 40.0844C89.1293 39.4227 88.0675 38.3986 87.3598 37.1391C86.6175 35.8457 86.2462 34.3048 86.2461 32.5166C86.246 30.7283 86.6132 29.1915 87.3477 27.906C88.0487 26.6539 89.0967 25.631 90.3656 24.9607C91.7119 24.2657 93.2097 23.916 94.7246 23.9429C95.9955 23.9239 97.2536 24.1985 98.4011 24.7451C99.4502 25.2424 100.351 26.0063 101.012 26.9606C101.662 27.9124 102.046 29.0202 102.126 30.17H98.3412C98.2328 29.3274 97.8091 28.5572 97.1556 28.0144C96.4741 27.4489 95.6099 27.1509 94.7246 27.1762C93.8766 27.16 93.0401 27.3753 92.3053 27.799C91.5854 28.233 91.0102 28.8705 90.6525 29.6312C90.2327 30.534 90.0279 31.5219 90.054 32.5172C90.0275 33.5138 90.2365 34.5026 90.6641 35.4032C91.0285 36.1631 91.6071 36.8 92.3287 37.2354C93.0555 37.6572 93.8836 37.8726 94.7238 37.8582C95.3166 37.865 95.9028 37.7339 96.4362 37.4751C96.9525 37.2218 97.4003 36.848 97.7418 36.3853C98.0879 35.9262 98.3105 35.3861 98.3882 34.8165H102.196C102.08 35.9658 101.681 37.0685 101.035 38.0258C100.38 38.9906 99.4842 39.7668 98.436 40.2769C97.2795 40.8357 96.0078 41.1146 94.7236 41.0911C93.2265 41.1104 91.7472 40.7649 90.4136 40.0844ZM107.658 23.9417H103.945V40.8984H107.658V23.9417ZM112.963 40.2162C111.922 39.6541 111.059 38.8121 110.472 37.7853C109.864 36.7127 109.554 35.4972 109.574 34.2645C109.554 33.0319 109.864 31.8164 110.472 30.7438C111.059 29.7171 111.922 28.875 112.963 28.3126C114.078 27.7167 115.327 27.4158 116.591 27.4385C117.852 27.4187 119.096 27.7195 120.208 28.3126C121.254 28.8722 122.122 29.7147 122.712 30.7438C123.32 31.8163 123.63 33.0319 123.61 34.2645C123.63 35.4972 123.32 36.7128 122.712 37.7853C122.122 38.8145 121.254 39.6569 120.208 40.2162C119.096 40.8096 117.852 41.1104 116.591 41.0904C115.327 41.1133 114.078 40.8124 112.963 40.2162ZM118.292 37.4859C118.789 37.1717 119.188 36.7233 119.442 36.1925C119.724 35.5899 119.864 34.93 119.849 34.2645C119.864 33.599 119.724 32.9391 119.442 32.3364C119.188 31.8056 118.789 31.3572 118.292 31.043C117.782 30.7275 117.191 30.5655 116.591 30.5761C115.991 30.5654 115.401 30.7274 114.891 31.043C114.393 31.3571 113.995 31.8055 113.741 32.3364C113.458 32.9391 113.319 33.599 113.334 34.2645C113.319 34.93 113.458 35.5899 113.741 36.1925C113.995 36.7234 114.393 37.1718 114.891 37.4859C115.401 37.8016 115.991 37.9637 116.591 37.9529C117.191 37.9636 117.782 37.8015 118.292 37.4859ZM126.04 38.7545C126.448 39.4829 127.054 40.0809 127.788 40.4796C128.58 40.8986 129.467 41.1086 130.363 41.0895C131.218 41.1014 132.065 40.9217 132.842 40.5635C133.49 40.2897 134.049 39.842 134.458 39.2701V40.8989H138.195V27.6301H134.458V33.4021C134.476 34.2094 134.363 35.0142 134.123 35.7853C133.944 36.3828 133.589 36.9127 133.105 37.3062C132.642 37.66 132.071 37.8455 131.488 37.8321C131.169 37.8438 130.851 37.7868 130.556 37.6649C130.26 37.543 129.994 37.3591 129.776 37.1257C129.323 36.6166 129.086 35.9504 129.117 35.2695V27.6293H125.405V36.1316C125.383 37.0464 125.601 37.9511 126.04 38.7545ZM143.225 40.2522C142.254 39.6964 141.467 38.8677 140.962 37.869C140.405 36.7422 140.129 35.4971 140.159 34.2405C140.13 32.9954 140.405 31.7621 140.962 30.6478C141.465 29.659 142.243 28.836 143.201 28.2768C144.207 27.7054 145.349 27.4157 146.506 27.4384C147.287 27.4287 148.062 27.5796 148.782 27.8815C149.414 28.1371 149.973 28.5443 150.41 29.067V23.9417H154.123V40.8984H150.41V39.4613C149.979 39.9804 149.428 40.3872 148.805 40.6468C148.094 40.9503 147.328 41.1013 146.554 41.0899C145.39 41.1109 144.241 40.8218 143.225 40.2522ZM148.853 37.4739C149.352 37.1664 149.751 36.7214 150.003 36.1924C150.286 35.5898 150.425 34.9299 150.41 34.2645C150.425 33.599 150.286 32.939 150.003 32.3363C149.751 31.8075 149.352 31.3626 148.853 31.0551C148.34 30.747 147.751 30.5893 147.153 30.6001C146.555 30.5892 145.965 30.7469 145.452 31.0551C144.954 31.3624 144.554 31.8073 144.303 32.3363C144.02 32.939 143.881 33.5989 143.896 34.2645C143.881 34.93 144.02 35.5899 144.303 36.1924C144.554 36.7216 144.954 37.1666 145.452 37.4739C145.965 37.7822 146.555 37.9399 147.153 37.9289C147.751 37.9398 148.341 37.7821 148.853 37.4739ZM91.5154 44.0842H86.9169L86.9171 60.85H90.7251V53.6408C90.7249 51.9642 90.685 50.4792 90.6053 49.1858C91.1002 50.3835 91.7149 51.7328 92.4493 53.2335L96.689 60.8493H101.287V44.0836H97.5031V51.2927C97.503 52.9693 97.5349 54.4543 97.5988 55.7478C97.1199 54.55 96.5051 53.2008 95.7546 51.7L91.5154 44.0842ZM106.425 60.1673C105.417 59.6071 104.594 58.7667 104.054 57.7479C103.489 56.6575 103.205 55.4432 103.228 54.2152C103.208 52.9869 103.505 51.7743 104.09 50.6944C104.643 49.6785 105.469 48.8366 106.473 48.2632C107.529 47.6697 108.723 47.368 109.934 47.3891C111.258 47.3583 112.563 47.7073 113.694 48.3949C114.744 49.042 115.556 50.0129 116.006 51.1613C116.484 52.3998 116.62 53.744 116.401 55.0533H106.877C106.94 55.4638 107.053 55.8661 107.216 56.2508C107.445 56.787 107.839 57.236 108.341 57.5322C108.873 57.8228 109.472 57.9674 110.078 57.9513C110.664 57.975 111.247 57.8428 111.766 57.5682C111.972 57.4567 112.152 57.3031 112.294 57.1174C112.437 56.9317 112.538 56.7181 112.593 56.4904H116.401C116.247 57.3543 115.872 58.1633 115.311 58.8376C114.719 59.5428 113.968 60.097 113.119 60.4542C112.157 60.859 111.121 61.0588 110.077 61.041C108.805 61.0736 107.545 60.7724 106.425 60.1673ZM112.568 52.4187H107.027C107.071 52.2572 107.122 52.0975 107.18 51.9399C107.378 51.401 107.743 50.9394 108.221 50.6225C108.74 50.3184 109.334 50.1689 109.934 50.1914C110.399 50.1821 110.86 50.2719 111.287 50.4548C111.662 50.6166 111.979 50.8879 112.197 51.2332C112.418 51.5914 112.545 51.9989 112.568 52.4187ZM119.202 47.5812H117.334V50.575H119.202V56.4669C119.177 57.331 119.393 58.1849 119.824 58.9339C120.229 59.6108 120.825 60.1526 121.537 60.4907C122.296 60.8493 123.128 61.0296 123.968 61.0177C124.59 61.0177 125.207 60.9041 125.788 60.6824V57.5927C125.376 57.7519 124.937 57.8331 124.495 57.8321C124.281 57.8443 124.067 57.8111 123.867 57.7347C123.667 57.6583 123.485 57.5406 123.333 57.389C123.035 57.0406 122.885 56.5894 122.914 56.1316V50.575H125.644V47.5812H122.914V44.8269H119.202V47.5812ZM126.196 47.5812H130.196L132.831 55.7962L135.418 47.5812H138.843L141.454 55.7962L144.064 47.5812H147.968L143.107 60.8499H139.681L137.071 53.0658L134.46 60.8499H131.01L126.196 47.5812ZM149.033 57.7362C149.621 58.763 150.484 59.6051 151.524 60.1672C152.64 60.7633 153.889 61.0642 155.153 61.0413C156.413 61.0613 157.658 60.7605 158.77 60.1672C159.816 59.6079 160.684 58.7654 161.273 57.7362C161.881 56.6637 162.191 55.4481 162.172 54.2154C162.191 52.9828 161.881 51.7672 161.273 50.6947C160.683 49.6655 159.816 48.823 158.77 48.2635C157.658 47.6704 156.413 47.3696 155.153 47.3894C153.889 47.3667 152.64 47.6676 151.524 48.2635C150.484 48.8259 149.621 49.668 149.033 50.6947C148.426 51.7673 148.116 52.9828 148.136 54.2154C148.116 55.4481 148.426 56.6636 149.033 57.7362ZM158.003 56.1434C157.749 56.6742 157.351 57.1226 156.854 57.4368C156.343 57.7524 155.753 57.9145 155.153 57.9039C154.553 57.9147 153.963 57.7525 153.452 57.4368C152.955 57.1227 152.556 56.6743 152.303 56.1434C152.02 55.5408 151.881 54.8809 151.896 54.2154C151.881 53.5499 152.02 52.89 152.303 52.2873C152.556 51.7564 152.955 51.308 153.452 50.9939C153.963 50.6783 154.553 50.5163 155.153 50.527C155.753 50.5164 156.343 50.6784 156.854 50.9939C157.351 51.3081 157.749 51.7565 158.003 52.2873C158.286 52.89 158.425 53.5499 158.41 54.2154C158.425 54.8809 158.286 55.5408 158.003 56.1434ZM164.086 47.5812H167.798V49.1621C168.161 48.5973 168.681 48.1516 169.295 47.8806C169.955 47.5577 170.68 47.3897 171.415 47.3896C171.967 47.3791 172.517 47.46 173.043 47.629V51.1737C172.477 50.9622 171.876 50.8567 171.271 50.8626C170.648 50.8528 170.037 51.0366 169.523 51.3885C168.952 51.8182 168.519 52.405 168.277 53.0771C167.957 53.8517 167.798 54.8377 167.798 56.035V60.8492H164.086V47.5812ZM178.169 43.8926H174.457V60.8494H178.169V56.9001L179.848 55.238L183.583 60.8498H188.013L182.531 52.5815L187.582 47.581H182.959L178.169 52.2569V43.8926Z" fill="#18311F"/>
</svg>
